<svg xmlns="http://www.w3.org/2000/svg" xmlns:xlink="http://www.w3.org/1999/xlink" width="500" zoomAndPan="magnify" viewBox="0 0 375 374.999991" height="500" preserveAspectRatio="xMidYMid meet" version="1.0"><defs><clipPath id="id1"><path d="M 112.5 111.75 L 265 111.75 L 265 264 L 112.5 264 Z M 112.5 111.75 " clip-rule="nonzero"/></clipPath></defs><g clip-path="url(#id1)"><path fill="#f4f6fc" d="M 112.5 187.554688 C 112.5 145.695312 146.445312 111.75 188.304688 111.75 C 230.160156 111.75 264.105469 145.695312 264.105469 187.554688 C 264.105469 229.410156 230.160156 263.355469 188.304688 263.355469 C 146.445312 263.355469 112.5 229.410156 112.5 187.554688 Z M 112.5 187.554688 " fill-opacity="1" fill-rule="nonzero"/></g><path fill="#f4f6fc" d="M 241.894531 133.960938 C 271.5 163.570312 271.5 211.566406 241.894531 241.144531 C 212.289062 270.75 164.289062 270.75 134.710938 241.144531 Z M 241.894531 133.960938 " fill-opacity="1" fill-rule="nonzero"/><path fill="#f4f6fc" d="M 260.5 210.683594 C 260.777344 209.828125 261.019531 208.941406 261.265625 208.054688 C 261.019531 208.941406 260.777344 209.828125 260.5 210.683594 " fill-opacity="1" fill-rule="nonzero"/><path fill="#f4f6fc" d="M 261.265625 208.054688 L 220.199219 166.992188 L 210.851562 176.339844 L 204.375 169.832031 L 198.964844 175.238281 L 167.222656 143.496094 L 165.265625 142.730469 L 153.074219 154.921875 L 167.769531 169.617188 L 153.378906 184.007812 L 167.433594 198.0625 L 152.066406 213.433594 L 200.953125 262.257812 C 229.09375 257.519531 251.976562 237.324219 260.5 210.652344 C 260.777344 209.828125 261.019531 208.941406 261.265625 208.054688 " fill-opacity="1" fill-rule="nonzero"/><path fill="#122a57" d="M 227.199219 185.476562 L 227.199219 213.585938 L 210.914062 213.585938 L 210.914062 187.371094 C 210.914062 180.769531 208.558594 176.277344 202.664062 176.277344 C 198.171875 176.277344 195.484375 179.304688 194.292969 182.238281 C 193.863281 183.277344 193.742188 184.742188 193.742188 186.207031 L 193.742188 213.585938 L 177.457031 213.585938 C 177.457031 213.585938 177.671875 169.160156 177.457031 164.578125 L 193.742188 164.578125 L 193.742188 171.511719 C 193.710938 171.574219 193.679688 171.632812 193.648438 171.664062 L 193.742188 171.664062 L 193.742188 171.511719 C 195.910156 168.183594 199.761719 163.414062 208.4375 163.414062 C 219.160156 163.414062 227.199219 170.414062 227.199219 185.476562 M 160.40625 140.929688 C 154.847656 140.929688 151.179688 144.59375 151.179688 149.390625 C 151.179688 154.097656 154.726562 157.855469 160.195312 157.855469 L 160.316406 157.855469 C 166 157.855469 169.542969 154.097656 169.542969 149.390625 C 169.390625 144.59375 165.96875 140.929688 160.40625 140.929688 M 152.128906 213.585938 L 168.441406 213.585938 L 168.441406 164.578125 L 152.160156 164.578125 L 152.160156 213.585938 Z M 152.128906 213.585938 " fill-opacity="1" fill-rule="nonzero"/></svg>